<svg width="1830" height="870" xmlns="http://www.w3.org/2000/svg" preserveAspectRatio="xMidYMid meet">
 <g>
  <title>background</title>
  <rect x="-1" y="-1" width="1832" height="872" id="canvas_background" fill="none"/>
 </g>

 <g>
  <title>Layer 1</title>
  <line transform="rotate(-90 36.325210571289084,78.46385192871095) " id="svg_7" x1="15.325425" y1="99.464119" x2="57.325425" y2="57.464119" stroke="#cccc00" stroke-width="2"/>
  <line transform="rotate(-180 36.2637939453125,180.0041046142578) " id="svg_8" x1="15.263889" y1="201.00258" x2="57.263889" y2="159.00258" stroke="#cccc00" stroke-width="2"/>
  <line transform="rotate(90 57.37038421630857,128.78552246093753) " id="svg_9" x1="27.170477" y1="128.785624" x2="87.570478" y2="128.785624" stroke="#cccc00" stroke-width="2"/>
  <line transform="rotate(90 63.14546966552732,128.78552246093753) " id="svg_10" x1="63.145472" y1="123.785622" x2="63.145472" y2="133.785622" stroke="#cccc00" stroke-width="2"/>
  <line id="svg_11" x1="46.575439" y1="67.589102" x2="36.575439" y2="77.589102" stroke="#cccc00" stroke-width="2"/>
  <line id="svg_12" x1="36.638881" y1="180.377551" x2="46.638881" y2="190.377551" stroke="#cccc00" stroke-width="2"/>
  <line transform="rotate(90 114.29563903808592,128.89724731445315) " id="svg_13" x1="114.295756" y1="166.397351" x2="114.295756" y2="91.397351" stroke="#cccc00" stroke-width="2"/>
  <line id="svg_18" x1="50.408634" y1="63.857908" x2="100.408634" y2="13.857908" stroke="#cccc00" stroke-width="2"/>
  <line transform="rotate(-90 75.3589553833008,218.89373779296875) " id="svg_19" x1="50.35904" y1="243.890965" x2="100.35904" y2="193.890965" stroke="#cccc00" stroke-width="2"/>
  <line transform="rotate(90 124.94737243652344,14.250114440917978) " id="svg_20" x1="124.947465" y1="39.250307" x2="124.947465" y2="-10.749693" stroke="#cccc00" stroke-width="2"/>
  <line transform="rotate(90 124.72465515136717,243.65252685546878) " id="svg_21" x1="124.724748" y1="268.648958" x2="124.724748" y2="218.648958" stroke="#cccc00" stroke-width="2"/>
 </g>
</svg>